# xmcd CD database file
#
# Track frame offsets:
#	150
#	16197
#	34373
#	54191
#	74343
#	88368
#	110153
#	124076
#	137307
#	157030
#	183813
#	205412
#	226151
#
# Disc length: 3176 seconds
#
# Revision: 0
# Processed by: cddbd v1.5.2PL0 Copyright (c) Steve Scherf et al.
# Submitted via: CDex 1.86
#
DISCID=af0c660d
DTITLE=James Intveld - Somewhere down the road
DYEAR=2000
DGENRE=Country
TTITLE0=Somewhere Down The Road
TTITLE1=Stringin' Me On
TTITLE2=All The Way From Memphis
TTITLE3=Love Calls
TTITLE4=One Sweet Letter
TTITLE5=Living Without You
TTITLE6=Stop The World
TTITLE7=Modern Don Juan
TTITLE8=What About You
TTITLE9=If I Should Lose You
TTITLE10=A Sinners Prayer
TTITLE11=Remember Me
TTITLE12=Nothing can stop +
EXTD=YEAR: 2000
EXTT0=
EXTT1=
EXTT2=
EXTT3=
EXTT4=
EXTT5=
EXTT6=
EXTT7=
EXTT8=
EXTT9=
EXTT10=
EXTT11=
EXTT12=
PLAYORDER=
